[IMG]http://img841.imageshack.us/img841/7167/joyfulnoise.jpg[/IMG]
[code]
Joyful Noise 2012 CAM READNFO XViD-26K

Imdb: 
http://www.imdb.com/title/tt1710396/

Plot:
G.G. Sparrow faces off with her choir's newly appointed director, Vi Rose Hill, over the group's 

direction as they head into a national competition.

Sources:
HOKNOWS INC-video
HOKNOWS INC-audio
thnxs man

Notes:
READNFO BECAUSE THE SOURCE NEEDED A LOT OF CROPPING :) gets shakey half way which why it needed a tiny 

bit more of a crop!
OTHER THAN that THE CAM IS VERY NICE!!!
ADDED FEW FILTERS TO THE VIDEO TO MAKE IT LOOK NICE!
SO like i always say...TAKE IT OR LEAVE IT!

Greetz:
Xtreme 

Encode|FYA|ILLUMANTI|CM8|RX|VISION|HDSCENE|NIGHTMAREZ|xTriLL|DTRG|CRYS|REMIXHD|BIDA|RX|REFILL|INSPiRAL

|SIC|ZOMBIESZ|HOPE|Anonymous|GooN
To all the people who have helped me :P you know who you are

Anything to offer email us @: 26k@hushmail.me

Video
ID                                       : 0
Format                                   : MPEG-4 Visual
Format profile                           : Advanced Simple@L5
Format settings, BVOP                    : 1
Format settings, QPel                    : No
Format settings, GMC                     : No warppoints
Format settings, Matrix                  : Default (H.263)
Codec ID                                 : XVID
Codec ID/Hint                            : XviD
Duration                                 : 1h 52mn
Bit rate                                 : 1 997 Kbps
Width                                    : 720 pixels
Height                                   : 336 pixels
Display aspect ratio                     : 2.2:1
Frame rate                               : 29.970 fps
Color space                              : YUV
Chroma subsampling                       : 4:2:0
Bit depth                                : 8 bits
Scan type                                : Progressive
Compression mode                         : Lossy
Bits/(Pixel*Frame)                       : 0.275
Stream size                              : 1.57 GiB (90%)
Writing library                          : XviD 1.2.1 (UTC 2008-12-04)

Audio
ID                                       : 1
Format                                   : MPEG Audio
Format version                           : Version 1
Format profile                           : Layer 3
Mode                                     : Joint stereo
Codec ID                                 : 55
Codec ID/Hint                            : MP3
Duration                                 : 1h 20mn
Source duration                          : 1h 20mn
Bit rate mode                            : Constant
Bit rate                                 : 320 Kbps
Channel(s)                               : 2 channels
Sampling rate                            : 48.0 KHz
Compression mode                         : Lossy
Stream size                              : 184 MiB (10%)
Alignment                                : Split accross interleaves
Interleave, duration                     : 9181 ms (275.16 video frames)
Writing library                          : LAME3.99r
Encoding settings                        : -m j -V 4 -q 2 -lowpass 20.5

[/code]
Screens:
[IMG]http://img833.imageshack.us/img833/7945/vlcsnap2012020714h28m27.png[/IMG]
[IMG]http://img856.imageshack.us/img856/2875/vlcsnap2012020714h28m10.png[/IMG]
[IMG]http://img638.imageshack.us/img638/4749/vlcsnap2012020714h28m07.png[/IMG]
[IMG]http://img576.imageshack.us/img576/9311/vlcsnap2012020714h27m58.png[/IMG]
[IMG]http://img10.imageshack.us/img10/1232/vlcsnap2012020714h27m54.png[/IMG]
[IMG]http://img641.imageshack.us/img641/4853/vlcsnap2012020714h28m03.png[/IMG]

[img]http://img851.imageshack.us/img851/5503/26ks.jpg[/img]
Thank you smallz for banner!